<svg xmlns="http://www.w3.org/2000/svg" xmlns:xlink="http://www.w3.org/1999/xlink" version="1.1" x="0px" y="0px" viewBox="0 0 100 125" style="enable-background:new 0 0 100 100;" xml:space="preserve"><path d="M93.77,69.42c0,1.87-0.73,3.63-2.05,4.95c-1.36,1.36-3.16,2.05-4.95,2.05s-3.58-0.68-4.95-2.05L50,42.55L18.18,74.37  c-2.73,2.73-7.17,2.73-9.9,0c-1.32-1.32-2.05-3.08-2.05-4.95s0.73-3.63,2.05-4.95l40.31-40.31c0.78-0.78,2.05-0.78,2.83,0  l40.3,40.31C93.04,65.79,93.77,67.55,93.77,69.42z"/><text x="0" y="115" fill="#000000" font-size="5px" font-weight="bold" font-family="'Helvetica Neue', Helvetica, Arial-Unicode, Arial, Sans-serif">Created by Marksu Desu</text><text x="0" y="120" fill="#000000" font-size="5px" font-weight="bold" font-family="'Helvetica Neue', Helvetica, Arial-Unicode, Arial, Sans-serif">from the Noun Project</text></svg>