<svg xmlns="http://www.w3.org/2000/svg" xmlns:xlink="http://www.w3.org/1999/xlink" version="1.1" x="0px" y="0px" viewBox="0 0 100 125" style="enable-background:new 0 0 100 100;" xml:space="preserve"><path d="M93.77,30.58c0,1.87-0.73,3.63-2.05,4.95l-40.3,40.3c-0.39,0.39-0.9,0.59-1.41,0.59s-1.02-0.2-1.41-0.59L8.28,35.53  c-2.73-2.73-2.73-7.17,0-9.9c2.73-2.73,7.17-2.73,9.9,0L50,57.45l31.82-31.82c1.32-1.32,3.08-2.05,4.95-2.05s3.63,0.73,4.95,2.05  C93.04,26.95,93.77,28.71,93.77,30.58z"/><text x="0" y="115" fill="#000000" font-size="5px" font-weight="bold" font-family="'Helvetica Neue', Helvetica, Arial-Unicode, Arial, Sans-serif">Created by Marksu Desu</text><text x="0" y="120" fill="#000000" font-size="5px" font-weight="bold" font-family="'Helvetica Neue', Helvetica, Arial-Unicode, Arial, Sans-serif">from the Noun Project</text></svg>