<svg xmlns="http://www.w3.org/2000/svg" xmlns:xlink="http://www.w3.org/1999/xlink" width="44" height="29" viewBox="0 0 44 29"><defs><path id="gtkta" d="M137.798 33.12c-7.027 4.424-10.74 9.85-9.273 13.653 1 2.579 4.136 4.136 8.873 4.38a14.66 14.66 0 0 0 1.223-.956c-2.78-.156-4.804-1.112-5.804-2.78-1.78-2.913-.245-7.427 4.114-12.119.089-.733.378-1.445.867-2.179zm-.312 18.367h-.066c-4.892-.245-8.183-1.89-9.228-4.603-.801-2.068-.223-4.559 1.69-7.183 1.823-2.557 4.758-5.092 8.45-7.293l.222.244c-.756.934-1.179 1.846-1.312 2.758v.044l-.045.022c-4.202 4.514-5.781 9.006-4.113 11.741 1 1.646 3.046 2.558 5.937 2.647l.4.022-.311.267c-.467.422-1 .867-1.624 1.29z"/><path id="gtktb" d="M142.267 49.997c-.4.378-.867.756-1.334 1.112 2.535-.178 5.204-.667 7.96-1.468a73.992 73.992 0 0 1-.2-1.423c-2.245.89-4.402 1.468-6.426 1.779zm-2.468 1.512l.467-.334a15.164 15.164 0 0 0 1.801-1.467l.045-.045h.044c2.068-.31 4.292-.934 6.605-1.845l.2-.09.022.223c.067.645.156 1.223.244 1.757l.023.156-.134.044c-3.046.89-5.981 1.4-8.739 1.557z"/><path id="gtktc" d="M152.096 46.64a37.53 37.53 0 0 1-.267 2.045c.2-.067.378-.156.578-.222.178-.067.356-.156.534-.223a46.617 46.617 0 0 0 3.424-1.467c-.066-.801-.133-1.646-.177-2.491-.4.267-.823.534-1.201.756-.912.556-1.89 1.09-2.891 1.601zm-.69 2.556l.045-.289c.111-.578.223-1.378.311-2.401v-.09l.09-.044c1-.511 2-1.067 2.935-1.645.467-.29.956-.6 1.445-.912l.245-.156.022.29c.044 1 .111 1.979.2 2.89v.111l-.111.045a49.881 49.881 0 0 1-3.536 1.534c-.178.067-.356.134-.533.223-.29.11-.579.222-.868.333z"/><path id="gtktd" d="M160.212 41.302c0 1.201-.044 2.38-.11 3.491 7.47-4.491 11.473-10.14 9.961-14.075-.4-1.023-1.134-1.868-2.179-2.558.578 3.603-2.313 8.584-7.672 13.142zm-.489 4.114l.022-.311c.09-1.223.134-2.535.134-3.87v-.066l.067-.045c5.403-4.58 8.36-9.784 7.538-13.253l-.09-.378.334.2c1.29.756 2.18 1.757 2.647 2.936 1.6 4.136-2.558 10.028-10.363 14.631z"/><path id="gtkte" d="M159.812 25.981c3.069 0 5.648.512 7.538 1.512a4.088 4.088 0 0 0-.422-.89c-2.001-3.268-8.228-3.535-15.521-.644v1.112a36.734 36.734 0 0 1 5.336-.912v-.022l2.491-1.49v1.356c.2-.022.4-.022.578-.022zm8.072 2.18l-.333-.2c-2.002-1.18-4.915-1.735-8.45-1.646h-.178v-1.112l-1.824 1.09v.133l-.155.022a41.23 41.23 0 0 0-5.648.979l-.2.044v-1.779l.11-.044c7.494-2.98 13.943-2.691 16.055.733.245.423.445.868.556 1.38z"/><path id="gtktf" d="M148.916 27.026a47.565 47.565 0 0 0-3.624 1.957c.066-.022.133-.044.177-.067a47.879 47.879 0 0 1 3.425-1.178v-.712zm-4.936 2.869l-.29-.267.178-.111c.445-.29.823-.534 1.179-.756a48.685 48.685 0 0 1 3.958-2.135l.245-.111v1.49l-.111.044c-1.179.356-2.38.756-3.514 1.201-.49.156-.978.356-1.534.6z"/><path id="gtktg" d="M136.864 35.854c-3.958 4.381-5.404 8.717-3.78 11.386 1 1.623 3.024 2.535 5.892 2.623 1.535-1.423 2.335-2.89 2.402-4.358.067-1.579-.69-3.18-2.29-4.914-1.557-1.646-2.269-3.202-2.224-4.737zm2.224 14.365h-.067c-3.002-.089-5.16-1.045-6.226-2.802-1.78-2.913-.223-7.449 4.136-12.14l.355-.379-.066.534c-.223 1.6.444 3.224 2.068 4.98 1.667 1.802 2.446 3.492 2.379 5.16-.067 1.579-.912 3.135-2.557 4.647z"/><path id="gtkth" d="M144.335 29.74l.667.577-.2.112c-2.312 1.312-3.49 2.579-3.69 3.98-.201 1.356.533 2.868 2.2 4.625 1.513 1.579 2.269 3.269 2.202 5.026-.067 1.845-1.023 3.758-2.824 5.537 1.89-.312 3.891-.89 5.96-1.713-.601-5.225-.468-12.14.288-15.476l.023-.067 2.423-1.445.045.222c1.09 4.292 1.134 10.807.734 15.188a43.652 43.652 0 0 0 2.668-1.49c.445-.267.912-.556 1.357-.867-.2-4.537.022-9.05.578-11.52l.022-.066 2.424-1.445.044.222c.623 2.446.956 5.915.956 9.784 5.204-4.492 8.05-9.54 7.272-12.941-1.957-1.135-4.803-1.69-8.228-1.624v2.49l-2.512 1.446V26.47a40.18 40.18 0 0 0-5.337.934v1.401l-2.49 1.49v-2.201a44.763 44.763 0 0 0-3.314 1.134c-.4.155-.8.333-1.268.511zm-2.668 20.346l.4-.356c1.98-1.823 3.047-3.78 3.113-5.67.045-1.646-.667-3.27-2.112-4.781-1.757-1.824-2.513-3.425-2.29-4.915.2-1.467 1.378-2.78 3.646-4.113l-.711-.623.244-.111a32.151 32.151 0 0 1 1.535-.623 47.884 47.884 0 0 1 3.558-1.223l.222-.067v2.068l1.823-1.09v-1.467l.134-.022c1.957-.49 3.869-.823 5.692-.978l.178-.023v3.603l1.824-1.09v-2.602h.155c3.603-.089 6.582.49 8.628 1.69l.067.045.022.067c.89 3.646-2.046 8.85-7.65 13.564l-.266.222v-.355c.022-3.87-.311-7.36-.89-9.851l-1.912 1.134c-.534 2.468-.756 6.96-.556 11.452v.089l-.089.044c-.489.334-.978.645-1.445.934a47.797 47.797 0 0 1-2.958 1.646l-.267.133.023-.311c.444-4.403.355-10.985-.645-15.166l-1.913 1.134c-.733 3.358-.845 10.251-.244 15.433l.022.133-.111.045c-2.335.933-4.58 1.556-6.671 1.867z"/><path id="gtkti" d="M137.842 33.052s-.489 1.09-.8 2.313c-.312 1.223.089 1.89.667 3.135.578 1.246 1.845 2.558 2.868 3.892s.868 2.935.734 4.158c-.133 1.223-1.6 2.78-1.6 2.78l-2.47 2.157s.268.022 1.38.022h1.156l.645-.222 1.245-1.001 1.623-1.623 1.401-2.202s.534-2.112.534-2.357c0-.267-.2-1.823-.2-1.823s-.934-1.69-1.223-2.313c-.29-.6-.89-.778-1.112-1.112-.222-.356-1.29-1.8-1.29-1.8l-.711-2.491s.6-1.69 1.156-2.269c.534-.578 2.29-1.823 2.49-1.956.2-.134-.289-.378-.289-.378l.067-.29-.956-.867s-2.135 1.068-3.647 2.335c-1.112.934-1.379 1.401-1.379 1.401z"/><path id="gtktj" d="M149.094 26.582s.423-.178 1.023-.445c.6-.267 1.112-.49 1.112-.49l.066 3.025-2.223 1.29z"/><path id="gtktk" d="M149.094 32.452l2.135-1.29.556 2.469.2 2.735.2 3.58-.022 2.69-.111 2.736-.09 1.223-.222 1.667-.155.89s-.312.133-1.134.378c-.845.267-1.268.378-1.268.378l-.2-.912-.445-4.091-.067-2.913.023-3.78.222-3.67z"/><path id="gtktl" d="M159.901 44.616l-.044.711s-.8.467-1.601.89c-.779.4-1.601.8-1.601.8l-.2-1.045-.134-3.002-.044-2.735.089-2.935.244-2.913.29-1.89 2.178-1.268.445 2.113.356 2.957.089 2.18.089 2.69-.045 2.735z"/><path id="gtktm" d="M156.9 26.293l2.178-1.38.023 3.803-2.18 1.268z"/></defs><g><g transform="translate(-127 -23)"><g><g><use fill="#fff" xlink:href="#gtkta"/></g><g><use fill="#fff" xlink:href="#gtktb"/></g><g><use fill="#fff" xlink:href="#gtktc"/></g><g><use fill="#fff" xlink:href="#gtktd"/></g></g><g><g><g><use fill="#fff" xlink:href="#gtkte"/></g><g><use fill="#fff" xlink:href="#gtktf"/></g></g></g><g><g><g><use fill="#fff" xlink:href="#gtktg"/></g><g><use fill="#fff" xlink:href="#gtkth"/></g></g></g><g><use fill="#fff" xlink:href="#gtkti"/></g><g><use fill="#fff" xlink:href="#gtktj"/></g><g><use fill="#fff" xlink:href="#gtktk"/></g><g><use fill="#fff" xlink:href="#gtktl"/></g><g><use fill="#fff" xlink:href="#gtktm"/></g></g></g></svg>