<svg xmlns="http://www.w3.org/2000/svg" xmlns:xlink="http://www.w3.org/1999/xlink" version="1.1" x="0px" y="0px" viewBox="0 0 100 125" enable-background="new 0 0 100 100" xml:space="preserve"><path d="M95.833,60.332V39.668l-10.349-1.133c-0.617-1.909-1.386-3.749-2.287-5.51l6.518-8.128L75.104,10.285l-8.124,6.521  c-1.765-0.905-3.608-1.675-5.522-2.293L60.332,4.167H39.668l-1.121,10.345c-1.918,0.619-3.766,1.391-5.535,2.298l-8.115-6.524  L10.285,24.897l6.526,8.112c-0.907,1.769-1.68,3.616-2.299,5.535L4.167,39.668v20.664l10.345,1.12  c0.618,1.918,1.391,3.767,2.298,5.535l-6.524,8.116l14.611,14.612l8.112-6.526c1.765,0.905,3.608,1.676,5.522,2.294l1.137,10.35  h20.664l1.133-10.349c1.91-0.617,3.75-1.386,5.511-2.288l8.128,6.519l14.611-14.612l-6.521-8.124c0.903-1.761,1.672-3.6,2.288-5.51  L95.833,60.332z M50,69.75c-10.907,0-19.75-8.842-19.75-19.75S39.093,30.25,50,30.25S69.75,39.092,69.75,50S60.907,69.75,50,69.75z"/><text x="0" y="115" fill="#000000" font-size="5px" font-weight="bold" font-family="'Helvetica Neue', Helvetica, Arial-Unicode, Arial, Sans-serif">Created by Thengakola</text><text x="0" y="120" fill="#000000" font-size="5px" font-weight="bold" font-family="'Helvetica Neue', Helvetica, Arial-Unicode, Arial, Sans-serif">from the Noun Project</text></svg>